<svg xmlns="http://www.w3.org/2000/svg" viewBox="0 0 186.51 42.88"><defs><style>.cls-1{fill:#f58832;}.cls-2{fill:#fff;}</style></defs><title>Pixels-360-logo</title><g id="Layer_2" data-name="Layer 2"><g id="Layer_2-2" data-name="Layer 2"><path class="cls-1" d="M131.78,15.54a13.17,13.17,0,0,0-6.86-6.33L131.74.14h-19V5.6h8.1l-6.13,8.1h5.3a7.37,7.37,0,0,1,3.8,1,7.67,7.67,0,0,1,2.81,2.79,7.38,7.38,0,0,1,1,3.8A7.6,7.6,0,0,1,120,29a7.79,7.79,0,0,1-3.94-1.08l-1.33-.76-.73,1.35-1.83,3.42,1.22.73A12.66,12.66,0,0,0,120,34.43h0a12.81,12.81,0,0,0,6.55-1.76,13.09,13.09,0,0,0,4.76-4.8,12.92,12.92,0,0,0,1.76-6.53,12.78,12.78,0,0,0-1.36-5.79Z"/><path class="cls-2" d="M153.16,19.88c0-.27-.07-.53-.12-.8,0,.27.07.54.12.8Z"/><path class="cls-1" d="M140.62,34.23a13.08,13.08,0,0,0,1.43-.08,12.74,12.74,0,0,0,4.66-1.62,13,13,0,0,0,4.54-4.47c.07-.12.15-.22.22-.33a12.88,12.88,0,0,0,1.76-6.53c0-.44,0-.88-.07-1.31,0-.27-.07-.53-.12-.8a14.24,14.24,0,0,1-.12-1.66,12.59,12.59,0,0,0-1.15-2.59,13.3,13.3,0,0,0-4.72-4.71A12.48,12.48,0,0,0,141,8.36l3.84-5L140.38.14,131.4,12a14.78,14.78,0,0,1,1.82,2.81,14.44,14.44,0,0,1,1,2.66,7.17,7.17,0,0,1,2.55-2.59,7.27,7.27,0,0,1,3.83-1,7.17,7.17,0,0,1,3.66,1,7.91,7.91,0,0,1,2.8,2.68,7,7,0,0,1,1,3.79,7.3,7.3,0,0,1-1,3.74,7.49,7.49,0,0,1-2.67,2.74,7.19,7.19,0,0,1-3.79,1,7.37,7.37,0,0,1-3.7-1,7.45,7.45,0,0,1-2.76-2.67,7.19,7.19,0,0,1-1-3.77h0v0h0a12.79,12.79,0,0,0-1.36-5.75,13,13,0,0,0-1.41-2.22l-.23.31a13.06,13.06,0,0,0-2.46,7.66,12.58,12.58,0,0,0,1.78,6.48,13.27,13.27,0,0,0,4.64,4.72,12.49,12.49,0,0,0,6.51,1.73Z"/><polygon class="cls-1" points="176.65 4.89 177.17 7.26 179.55 6.74 179.02 4.36 176.65 4.89 176.65 4.89"/><polygon class="cls-1" points="184.21 11.14 184.59 12.85 186.3 12.47 185.92 10.76 184.21 11.14 184.21 11.14"/><polygon class="cls-1" points="180.58 7.39 180.31 6.17 183.36 5.5 184.32 9.81 180 10.77 179.31 7.67 180.58 7.39 180.58 7.39"/><polygon class="cls-1" points="181.67 2.1 182.2 4.47 184.58 3.94 184.05 1.57 181.67 2.1 181.67 2.1"/><polygon class="cls-1" points="179.2 12.03 181.19 11.59 182.07 15.51 176.63 16.72 175.42 11.28 178.86 10.51 179.2 12.03 179.2 12.03"/><polygon class="cls-1" points="178.77 1.74 179.04 2.95 180.26 2.68 179.99 1.47 178.77 1.74 178.77 1.74"/><polygon class="cls-1" points="185.02 5.69 185.29 6.91 186.5 6.64 186.24 5.42 185.02 5.69 185.02 5.69"/><path class="cls-1" d="M182,16.49v0l-5.15,1.14-.28.06a11.8,11.8,0,0,1-16.15,10.61,12,12,0,0,1-3.8-2.53,11.77,11.77,0,0,1-1.75-2.16,14.56,14.56,0,0,1-1.77,4.87c-.16.29-.36.55-.54.82l.23.25a16.95,16.95,0,0,0,5.52,3.73,16.79,16.79,0,0,0,3.21,1,17,17,0,0,0,3.31.33h0a17,17,0,0,0,3.42-.34,16.49,16.49,0,0,0,1.74-.46,17.16,17.16,0,0,0,5.91-3.28c.37-.31.74-.64,1.08-1s.7-.74,1-1.13l.07-.07c.17-.21.33-.44.49-.66a17.13,17.13,0,0,0,2.68-5.21c.15-.47.26-.95.37-1.43,0-.06,0-.12,0-.19v-.06a17,17,0,0,0,.33-3.39v0c0-.3,0-.58,0-.88Zm-28.84.88a12.56,12.56,0,0,1,.34-2.85,11.2,11.2,0,0,1,.5-1.62,12,12,0,0,1,2.53-3.81,11.16,11.16,0,0,1,3.74-2.6,11.9,11.9,0,0,1,4.58-.86h0a11.73,11.73,0,0,1,9.58,4.95l.84-.19,3.45-.77.14,0-.37-1.67-1.06.24-.89.2-.2-.89-.53-2.38-.2-.89.31-.07a16.92,16.92,0,0,0-1.43-1.06A18.05,18.05,0,0,0,171.5,1.5a16.69,16.69,0,0,0-3.25-1,17.32,17.32,0,0,0-3.41-.33,16.88,16.88,0,0,0-3.34.33,17.18,17.18,0,0,0-3.24,1,17.89,17.89,0,0,0-3,1.58,17.11,17.11,0,0,0-2.59,2.09,15.83,15.83,0,0,0-2.13,2.58,16.93,16.93,0,0,0-1.07,1.9c-.18.36-.36.72-.51,1.1-.06.16-.29.79-.36,1a11.92,11.92,0,0,1,3.46,3.69,26.15,26.15,0,0,1,1.17,5.42c-.07-.55-.12-2.85-.12-3.45Z"/><path class="cls-2" d="M6.2,21.32A7.72,7.72,0,0,0,8.35,26.9a7.1,7.1,0,0,0,5.32,2.24A7.18,7.18,0,0,0,19,26.86a7.53,7.53,0,0,0,2.21-5.44A7.33,7.33,0,0,0,19,16a7.69,7.69,0,0,0-5.61-2.18A6.8,6.8,0,0,0,8.31,16,7.44,7.44,0,0,0,6.2,21.32ZM6,32.37V42.88H0V8.42H6V10.6A13.15,13.15,0,0,1,9.77,8.46a12.84,12.84,0,0,1,4.28-.7,13.83,13.83,0,0,1,4.64.77,11.88,11.88,0,0,1,3.9,2.28,14,14,0,0,1,4.87,10.7,13.85,13.85,0,0,1-1.15,5.56,13.18,13.18,0,0,1-3.25,4.57A12.53,12.53,0,0,1,19,34.24a13.28,13.28,0,0,1-4.86.9,13.78,13.78,0,0,1-4.46-.67A11.55,11.55,0,0,1,6,32.37Z"/><polygon class="cls-2" points="28.84 0 28.84 5.77 34.75 5.77 34.75 0 28.84 0 28.84 0"/><polygon class="cls-2" points="28.84 34.46 34.75 34.46 34.75 8.43 28.84 8.43 28.84 34.46 28.84 34.46"/><polygon class="cls-2" points="48.44 26.17 43.04 34.46 36.42 34.46 45.24 20.94 37.44 8.43 44.23 8.43 48.72 15.86 53.34 8.43 60.41 8.43 52.11 20.78 60.51 34.46 53.62 34.46 48.44 26.17 48.44 26.17"/><path class="cls-2" d="M78.18,18.55a7.4,7.4,0,0,0-2.61-4,7.56,7.56,0,0,0-4.63-1.36,6.94,6.94,0,0,0-4.33,1.47A7.11,7.11,0,0,0,64,18.55Zm-14.36,4.8A6.46,6.46,0,0,0,66,27.79a7.48,7.48,0,0,0,5,1.62,7.74,7.74,0,0,0,3.66-.85,6.52,6.52,0,0,0,2.57-2.39h6.53a14.19,14.19,0,0,1-5,6.61,12.81,12.81,0,0,1-7.63,2.35,13.69,13.69,0,0,1-5.36-1,13.13,13.13,0,0,1-4.39-3,14,14,0,0,1-3.88-9.61,14,14,0,0,1,.93-5.12A13.13,13.13,0,0,1,61.26,12a14.21,14.21,0,0,1,4.5-3.24,12.43,12.43,0,0,1,5.18-1.14,13.41,13.41,0,0,1,6.32,1.54,14.55,14.55,0,0,1,5,4.33,11.65,11.65,0,0,1,1.86,3.76,17.2,17.2,0,0,1,.6,4.78c0,.14,0,.36,0,.65s0,.51,0,.65Z"/><polygon class="cls-2" points="86.07 34.46 86.07 0 91.99 0 91.99 34.46 86.07 34.46 86.07 34.46"/><path class="cls-2" d="M110.56,12.33l-4,4q-2.44-2.41-4.43-2.41a2.78,2.78,0,0,0-1.7.46,1.39,1.39,0,0,0-.62,1.15,1.41,1.41,0,0,0,.39,1,7.29,7.29,0,0,0,1.93,1.2l2.37,1.18a14,14,0,0,1,5.14,3.76,7.43,7.43,0,0,1,1.4,4.5,7.43,7.43,0,0,1-2.52,5.73,9.65,9.65,0,0,1-6.76,2.3,10.74,10.74,0,0,1-9-4.4l4-4.33a9.18,9.18,0,0,0,2.66,2.14,5.89,5.89,0,0,0,2.71.82,3.23,3.23,0,0,0,2.06-.62,1.78,1.78,0,0,0,.78-1.42q0-1.49-2.82-2.91L100,23.33q-6.25-3.15-6.25-7.88a6.84,6.84,0,0,1,2.35-5.22,8.55,8.55,0,0,1,6-2.17,10.45,10.45,0,0,1,8.47,4.26Z"/></g></g></svg>