<?xml version="1.0" standalone="no"?><!DOCTYPE svg PUBLIC "-//W3C//DTD SVG 1.1//EN" "http://www.w3.org/Graphics/SVG/1.1/DTD/svg11.dtd"><svg viewBox="0 0 178 35" class="_3Cq0A _18HZg _1S4tQ rF1Fm" fill="#FFF" data-reactid="13" version="1.1" xmlns="http://www.w3.org/2000/svg" xmlns:xlink="http://www.w3.org/1999/xlink" style="border-bottom-color:rgb(91, 192, 222);border-left-color:rgb(91, 192, 222);border-right-color:rgb(91, 192, 222);border-top-color:rgb(91, 192, 222);color:rgb(91, 192, 222);cursor:pointer;height:30px;margin-top:-2px;outline-color:rgb(91, 192, 222);text-decoration:none solid rgb(91, 192, 222);text-decoration-color:rgb(91, 192, 222);transition-duration:0.5s;transition-property:fill;width:151.992px;column-rule-color:rgb(91, 192, 222);flex-shrink:0;perspective-origin:75.9844px 15px;-webkit-text-emphasis-color:rgb(91, 192, 222);-webkit-text-fill-color:rgb(91, 192, 222);-webkit-text-stroke-color:rgb(91, 192, 222);transform-origin:75.9961px 15px;fill:rgb(255, 255, 255);caret-color:rgb(91, 192, 222);"><path d="M.169.23h23.66v5.952h-8.365v26.516H8.398V6.168H.168zM174.49 6.719c0 3.611-3.013 6.539-6.73 6.539-3.718 0-6.73-2.928-6.73-6.539 0-3.611 3.012-6.54 6.73-6.54 3.717 0 6.73 2.928 6.73 6.54zM177.86 29.151s-.212-4.87-2.232-8.933c-1.462-2.938-3.94-5.441-7.62-5.441-2.312 0-4.178 1.414-5.603 3.488-.67.975-1.367 2.104-1.843 3.293-.69 1.726-1.054 3.587-1.34 5.36-.687 4.263.122 7.928.122 7.928s.558-1.273 1.76-2.883c.767-1.029 1.84-2.077 3.154-3.136 1.558-1.256 3.715-2.62 5.888-3.046 6.248-1.226 7.715 3.37 7.715 3.37z" data-reactid="14" style="border-bottom-color:rgb(91, 192, 222);border-left-color:rgb(91, 192, 222);border-right-color:rgb(91, 192, 222);border-top-color:rgb(91, 192, 222);color:rgb(91, 192, 222);cursor:pointer;height:auto;outline-color:rgb(91, 192, 222);overflow-x:visible;overflow-y:visible;text-decoration:none solid rgb(91, 192, 222);text-decoration-color:rgb(91, 192, 222);width:auto;column-rule-color:rgb(91, 192, 222);perspective-origin:0px 0px;-webkit-text-emphasis-color:rgb(91, 192, 222);-webkit-text-fill-color:rgb(91, 192, 222);-webkit-text-stroke-color:rgb(91, 192, 222);transform-origin:0px 0px;fill:rgb(255, 255, 255);d:path(&quot;M 0.169 0.23 H 23.829 V 6.182 H 15.464 V 32.698 H 8.398 V 6.168 H 0.168 Z M 174.49 6.719 C 174.49 10.33 171.477 13.258 167.76 13.258 C 164.042 13.258 161.03 10.33 161.03 6.719 C 161.03 3.108 164.042 0.178999 167.76 0.178999 C 171.477 0.178999 174.49 3.107 174.49 6.719 Z M 177.86 29.151 S 177.648 24.281 175.628 20.218 C 174.166 17.28 171.688 14.777 168.008 14.777 C 165.696 14.777 163.83 16.191 162.405 18.265 C 161.735 19.24 161.038 20.369 160.562 21.558 C 159.872 23.284 159.508 25.145 159.222 26.918 C 158.535 31.181 159.344 34.846 159.344 34.846 S 159.902 33.573 161.104 31.963 C 161.871 30.934 162.944 29.886 164.258 28.827 C 165.816 27.571 167.973 26.207 170.146 25.781 C 176.394 24.555 177.861 29.151 177.861 29.151 Z&quot;);caret-color:rgb(91, 192, 222);"/><path d="M34.142 30.722v1.949h5.942V8.876h-6.43v16.799s-.838 1.244-3.166 1.854c-2.328.609-3.005-.284-3.262-.677-.257-.392-.474-2.004-.474-2.004V8.876h-6.443v16.988s.115 6.598 5.82 7.186c1.1.114 2.26.117 3.204-.091a10.118 10.118 0 0 0 2.63-.995c1.374-.74 2.18-1.242 2.18-1.242zM56.638 27.175v5.495s-1.367.46-5.09.46c-4.9 0-5.685-3.41-5.787-4.546-.007-.086-.08-.713-.087-1.678l.024-12.454h-3.177V8.876h3.167V1.54h6.443v7.335h4.507v5.591h-4.453v12.735s.068.555 1.137.623c1.07.068 3.316-.69 3.316-.69M78.7 20.99c0 6.823-3.735 12.355-10.637 12.355-6.092 0-10.477-5.532-10.477-12.355S61.524 8.635 68.063 8.635c7.267 0 10.638 5.532 10.638 12.355zm-10.489-6.971c-3.018 0-4.02 3.078-4.02 6.876 0 3.797 1.056 6.876 4.02 6.876 3.154 0 4.02-3.079 4.02-6.876 0-3.798-.893-6.876-4.02-6.876zM81.137 32.698h6.497V18.472s.988-1.43 1.94-2.193c.994-.797 2.173-1.015 2.426-1.015.619 0 1.725.081 1.725.081v-6.71s-2.64-.03-4.08.843c-1.442.873-2.477 2.294-2.477 2.294V8.875h-5.97l-.06 23.823zM96.973 32.698V.23h9.394l5.793 20.76L118.089.23h9.42v32.468h-6.334V10.716l-6.335 21.982h-5.36l-6.226-21.982v21.982zM138.25 25.334c.186.562.873 1.99 2.537 2.274 1.665.285 2.58.122 3.838-.61 1.258-.73 2.233-2.172 2.233-2.172l4.771 2.944s-1.107 2.214-3.644 3.777c-.877.54-1.441.792-2.994 1.198-1.064.278-2.275.386-3.685.386-2.492 0-4.434-.717-5.92-1.901-1.557-1.24-2.722-2.926-3.39-4.9-.66-1.958-.832-3.523-.832-6.315 0-2.095.486-4.255 1.478-6.124.755-1.423 1.75-2.672 3.1-3.602 1.518-1.045 3.47-1.685 5.764-1.685 6.714 0 9.04 6.064 9.446 7.174.407 1.11.495 3.505.495 3.505v2.965h-13.813s.406 2.454.616 3.086zm-.616-7.796h7.742s-.108-3.926-3.87-3.926c-3.764 0-3.872 3.926-3.872 3.926z" data-reactid="15" style="border-bottom-color:rgb(91, 192, 222);border-left-color:rgb(91, 192, 222);border-right-color:rgb(91, 192, 222);border-top-color:rgb(91, 192, 222);color:rgb(91, 192, 222);cursor:pointer;height:auto;outline-color:rgb(91, 192, 222);overflow-x:visible;overflow-y:visible;text-decoration:none solid rgb(91, 192, 222);text-decoration-color:rgb(91, 192, 222);width:auto;column-rule-color:rgb(91, 192, 222);perspective-origin:0px 0px;-webkit-text-emphasis-color:rgb(91, 192, 222);-webkit-text-fill-color:rgb(91, 192, 222);-webkit-text-stroke-color:rgb(91, 192, 222);transform-origin:0px 0px;fill:rgb(255, 255, 255);d:path(&quot;M 34.142 30.722 V 32.671 H 40.084 V 8.876 H 33.654 V 25.675 S 32.816 26.919 30.488 27.529 C 28.16 28.138 27.483 27.245 27.226 26.852 C 26.969 26.46 26.752 24.848 26.752 24.848 V 8.876 H 20.309 V 25.864 S 20.424 32.462 26.129 33.05 C 27.229 33.164 28.389 33.167 29.333 32.959 A 10.118 10.118 0 0 0 31.963 31.964 C 33.337 31.224 34.143 30.722 34.143 30.722 Z M 56.638 27.175 V 32.67 S 55.271 33.13 51.548 33.13 C 46.648 33.13 45.863 29.72 45.761 28.584 C 45.754 28.498 45.681 27.871 45.674 26.906 L 45.698 14.452 H 42.521 V 8.876 H 45.688 V 1.54 H 52.131 V 8.875 H 56.638 V 14.466 H 52.185 V 27.201 S 52.253 27.756 53.322 27.824 C 54.392 27.892 56.638 27.134 56.638 27.134 M 78.7 20.99 C 78.7 27.813 74.965 33.345 68.063 33.345 C 61.971 33.345 57.586 27.813 57.586 20.99 S 61.524 8.635 68.063 8.635 C 75.33 8.635 78.701 14.167 78.701 20.99 Z M 68.211 14.019 C 65.193 14.019 64.191 17.097 64.191 20.895 C 64.191 24.692 65.247 27.771 68.211 27.771 C 71.365 27.771 72.231 24.692 72.231 20.895 C 72.231 17.097 71.338 14.019 68.211 14.019 Z M 81.137 32.698 H 87.634 V 18.472 S 88.622 17.042 89.574 16.279 C 90.568 15.482 91.747 15.264 92 15.264 C 92.619 15.264 93.725 15.345 93.725 15.345 V 8.635 S 91.085 8.605 89.645 9.478 C 88.203 10.351 87.168 11.772 87.168 11.772 V 8.875 H 81.198 L 81.138 32.698 Z M 96.973 32.698 V 0.23 H 106.367 L 112.16 20.99 L 118.089 0.23 H 127.509 V 32.698 H 121.175 V 10.716 L 114.84 32.698 H 109.48 L 103.254 10.716 V 32.698 Z M 138.25 25.334 C 138.436 25.896 139.123 27.324 140.787 27.608 C 142.452 27.893 143.367 27.73 144.625 26.998 C 145.883 26.268 146.858 24.826 146.858 24.826 L 151.629 27.77 S 150.522 29.984 147.985 31.547 C 147.108 32.087 146.544 32.339 144.991 32.745 C 143.927 33.023 142.716 33.131 141.306 33.131 C 138.814 33.131 136.872 32.414 135.386 31.23 C 133.829 29.99 132.664 28.304 131.996 26.33 C 131.336 24.372 131.164 22.807 131.164 20.015 C 131.164 17.92 131.65 15.76 132.642 13.891 C 133.397 12.468 134.392 11.219 135.742 10.289 C 137.26 9.244 139.212 8.604 141.506 8.604 C 148.22 8.604 150.546 14.668 150.952 15.778 C 151.359 16.888 151.447 19.283 151.447 19.283 V 22.248 H 137.634 S 138.04 24.702 138.25 25.334 Z M 137.634 17.538 H 145.376 S 145.268 13.612 141.506 13.612 C 137.742 13.612 137.634 17.538 137.634 17.538 Z&quot;);caret-color:rgb(91, 192, 222);"/></svg>